<svg xml:space="preserve" viewBox="427.68 427.68 224.64 222.48" version="1.1" xmlns:xlink="http://www.w3.org/1999/xlink" xmlns="http://www.w3.org/2000/svg" style="max-height: 500px" width="224.64" height="222.48">
<desc>Created with Fabric.js 5.2.4</desc>
<defs>
</defs>
<g id="3770d16a-794d-4809-a3bb-3c932e6496ca" transform="matrix(1 0 0 1 540 540)">
<rect height="1080" width="1080" ry="0" rx="0" y="-540" x="-540" style="stroke: none; stroke-width: 1; stroke-dasharray: none; stroke-linecap: butt; stroke-dashoffset: 0; stroke-linejoin: miter; stroke-miterlimit: 4; fill: rgb(255,255,255); fill-rule: nonzero; opacity: 1;"/>
</g>
<g id="a92a33a5-2cda-44e0-a0a9-42ea61cb026b" transform="matrix(1 0 0 1 540 540)">
</g>
<g transform="matrix(1 0 0 1 540 540)">
<g style="">
		<g transform="matrix(1 0 0 1 0 0)">
<rect height="1080" width="1080" ry="0" rx="0" y="-540" x="-540" style="stroke: none; stroke-width: 1; stroke-dasharray: none; stroke-linecap: butt; stroke-dashoffset: 0; stroke-linejoin: miter; stroke-miterlimit: 4; fill: rgb(255,255,255); fill-rule: nonzero; opacity: 1; visibility: hidden;"/>
</g>
		<g transform="matrix(1 0 0 1 -0.02 -42.37)">
<path stroke-linecap="round" d="M 323.113 347.934 C 323.113 368.18 306.709 384.583 286.437 384.583 C 266.193 384.583 249.764 368.17900000000003 249.764 347.934 C 249.764 327.69300000000004 266.193 311.261 286.437 311.261 C 306.682 311.261 323.113 327.693 323.113 347.934" transform="translate(-286.44, -347.92)" style="stroke: none; stroke-width: 1; stroke-dasharray: none; stroke-linecap: butt; stroke-dashoffset: 0; stroke-linejoin: miter; stroke-miterlimit: 4; fill: rgb(0,174,172); fill-rule: nonzero; opacity: 1;"/>
</g>
		<g transform="matrix(1 0 0 1 0 28.79)">
<path stroke-linecap="round" d="M 332.684 368.855 C 332.51500000000004 368.82800000000003 332.34400000000005 368.94 332.261 369.083 C 324.245 386.391 306.76800000000003 398.41400000000004 286.439 398.41400000000004 C 266.985 398.41400000000004 250.12900000000002 387.403 241.68900000000002 371.28200000000004 C 241.63500000000002 371.13900000000007 241.49200000000002 371.08500000000004 241.35200000000003 371.08500000000004 L 208.94000000000003 371.08500000000004 C 208.711 371.08500000000004 208.54400000000004 371.259 208.54400000000004 371.48100000000005 L 208.54400000000004 468.9440000000001 C 208.54400000000004 469.1670000000001 208.71100000000004 469.33900000000006 208.94000000000003 469.33900000000006 L 241.51800000000003 469.33900000000006 C 241.74800000000002 469.33900000000006 241.91200000000003 469.16700000000003 241.91200000000003 468.9440000000001 L 241.91200000000003 420.97400000000005 C 241.91200000000003 413.95000000000005 246.68300000000002 407.3070000000001 253.65800000000004 406.345 C 262.13200000000006 405.16200000000003 269.386 411.684 269.386 419.92900000000003 L 269.386 468.944 C 269.386 469.16700000000003 269.55400000000003 469.339 269.78200000000004 469.339 L 303.12700000000007 469.339 C 303.35300000000007 469.339 303.5230000000001 469.167 303.5230000000001 468.944 L 303.5230000000001 420.97400000000005 C 303.5230000000001 413.95000000000005 308.2940000000001 407.3070000000001 315.2630000000001 406.345 C 323.7390000000001 405.16200000000003 330.9920000000001 411.684 330.9920000000001 419.92900000000003 L 330.9920000000001 468.944 C 330.9920000000001 469.16700000000003 331.15900000000005 469.339 331.3880000000001 469.339 L 363.9700000000001 469.339 C 364.19700000000006 469.339 364.3660000000001 469.167 364.3660000000001 468.944 L 364.3660000000001 407.958 C 364.333 385.848 353.069 370.886 332.684 368.855" transform="translate(-286.46, -419.09)" style="stroke: none; stroke-width: 1; stroke-dasharray: none; stroke-linecap: butt; stroke-dashoffset: 0; stroke-linejoin: miter; stroke-miterlimit: 4; fill: rgb(0,92,103); fill-rule: nonzero; opacity: 1;"/>
</g>
</g>
</g>
</svg>